<svg width="20" height="30" viewBox="0 0 20 30" fill="none" xmlns="http://www.w3.org/2000/svg">
<path d="M6.26854 29.6387C9.72907 27.6933 13.1896 25.7478 16.5722 23.6844C17.2804 23.2169 18.0086 22.6515 18.6388 22.066C18.8949 21.8122 19.0731 21.4404 19.0554 21.0285C18.8842 19.8706 16.6934 18.6055 15.6512 19.2087C11.5427 21.3277 7.55222 23.3688 3.44371 25.4878C2.87364 25.7793 2.40154 26.091 1.92944 26.4026C1.33931 26.7922 1.33699 27.3021 1.86463 27.7163C2.82193 28.5248 3.81934 29.1373 4.89467 29.8678C5.3066 29.8501 5.81649 29.8524 6.26854 29.6387Z" fill="#48E5C2"/>
<path d="M5.58332 16.5349C6.83916 16.3837 7.99704 16.2125 9.27294 15.9633C11.7067 15.543 14.2385 15.1426 16.6722 14.7222C17.4182 14.5687 17.8903 14.2571 17.8926 13.7472C18.2737 11.8858 17.5525 10.9216 15.7867 11.0704C12.0392 11.426 8.34962 11.9975 4.66 12.5691C4.03207 12.6447 3.48206 12.8383 2.81402 13.1098C2.59803 13.1677 2.32187 13.5195 2.26169 13.8134C2.29485 15.1471 4.20945 16.764 5.58332 16.5349Z" fill="#48E5C2"/>
<path d="M19.7972 8.93135C20.0132 8.8735 20.3071 8.93367 20.4251 8.85576C20.5632 8.67988 20.5455 8.26796 20.4675 8.14993C20.078 7.5598 19.6884 6.96968 19.2989 6.37955C17.1529 3.89869 14.176 2.98301 11.2193 1.96935C8.83025 1.17401 6.51914 0.496687 4.22809 -0.278599C3.83622 -0.358829 3.54231 -0.419002 3.15044 -0.499232C3.07021 -0.107361 2.8519 0.460388 3.10568 0.716497C4.23422 2.68281 5.3427 4.7471 8.0858 5.30871C11.9845 6.20898 16.1014 6.54151 19.7972 8.93135Z" fill="#48E5C2"/>
</svg>
