<svg width="22" height="30" viewBox="0 0 22 30" fill="none" xmlns="http://www.w3.org/2000/svg">
<g clip-path="url(#clip0_1979_3527)">
<path d="M3.40086 11.4501C3.70086 11.3501 4.00086 11.2501 4.30086 11.0501C4.80086 10.7501 5.30086 10.4501 5.80086 10.1501C9.00086 8.05014 12.1009 5.85014 15.3009 3.85014C16.1009 3.35014 16.0009 2.95014 15.5009 2.35014C14.1009 0.85014 12.7009 0.55014 11.1009 1.65014C8.00086 3.85014 4.90086 6.25014 1.80086 8.75014C0.500863 9.75014 0.600863 10.3501 2.20086 11.0501C2.50086 11.1501 3.00086 11.2501 3.40086 11.4501Z" fill="#48E5C2"/>
<path d="M14.5012 26.5502C12.2012 24.7502 9.90117 22.9502 7.50117 21.1502C7.20117 20.9502 6.90117 20.7502 6.50117 20.5502C5.50117 20.0502 4.10117 20.2502 3.20117 20.9502C2.70117 21.4502 2.70117 21.8502 3.20117 22.2502C4.60117 23.4502 6.00117 24.7502 7.40117 25.9502C8.50117 26.8502 9.60117 27.7502 10.7012 28.5502C11.1012 28.8502 11.5012 28.9502 11.9012 29.1502C13.0012 28.9502 13.7012 28.4502 14.4012 27.7502C15.1012 27.2502 15.0012 26.9502 14.5012 26.5502Z" fill="#48E5C2"/>
<path d="M5.00078 13.0501C4.80078 13.0501 4.50078 13.2501 4.30078 13.3501C4.40078 13.6501 4.50078 14.0501 4.70078 14.1501C5.60078 14.6501 6.50078 15.2501 7.50078 15.3501C10.7008 15.7501 13.9008 15.9501 17.1008 16.2501C18.4008 16.3501 19.7008 16.5501 20.9008 16.6501C21.0008 16.5501 21.0008 16.3501 21.1008 16.2501C20.2008 14.6501 18.8008 13.7501 17.0008 13.3501C13.1008 12.6501 9.00078 12.4501 5.00078 13.0501Z" fill="#48E5C2"/>
</g>
<defs>
<clipPath id="clip0_1979_3527">
<rect width="20.2" height="28.3" fill="white" transform="translate(0.900391 0.850098)"/>
</clipPath>
</defs>
</svg>
